<?xml version="1.0" encoding="UTF-8"?>
<svg id="Layer_2" data-name="Layer 2" xmlns="http://www.w3.org/2000/svg" viewBox="0 0 506.83 478.5">
  <defs>
    <style>
      .cls-1 {
        fill: #d1d3d4;
        stroke: #d1d3d4;
        stroke-miterlimit: 10;
      }
    </style>
  </defs>
  <g>
    <path class="cls-1" d="M190.24,186.66c-29.45,23.68,13.49,147.05,22.52,179.88,9.03,32.83-38.69,73.92-9.82,94.71,28.61,20.6,66.2,20.21,104.31,9.53,38.11-10.68,20.01-66.88-14.81-103.08-10.44-10.86,59.95-135.66,22.42-164.53-3.46,34.07-42.63,98.7-61.11,130.17-5.49-41.84-65.69-124.16-63.52-146.68Z"/>
    <path class="cls-1" d="M256.09,199.61s1.89,44.31-18.69,56.91c-31.58-11.25,18.69-56.91,18.69-56.91Z"/>
  </g>
  <g>
    <path class="cls-1" d="M193.35,155.26c1.84,1.66,.3,7.13-3.54,16.52-3.79,9.39-7.09,14.68-10.92,15.94-4.06,1.35-7.96,.73-11.91-1.91-.85-.94-2.48-2.15-4.95-3.56-18.41-4.88-38.51-7.4-59.78-6.92,6.37,9.09,12.74,18.19,19.11,27.28,.76,1.08,2.23,2.1,4.39,3.09,2.16,.99,3.49,1.9,4.03,2.7,2.01,3,.89,6.09-3.2,9.53-3.1,2.73-8.33,5.86-15.67,10.05-7.86,4.69-12.36,6.82-13.73,5.43-.42-.43-.86-1.13-1.32-2.11-.45-.98-1.22-2.03-2.32-3.15-29.35-29.87-58.71-59.74-88.06-89.61-.59-.6-1.36-.89-2.33-.86-.96,.03-1.58-.09-1.83-.34-2.12-2.44-.13-7.24,6.28-13.98,1.94-2.09,7.1-6.09,15.65-11.38,8.54-5.26,14.5-8.89,17.78-11.45,3.1-2.4,8.55-8.45,17.08-17.65,8.55-9.19,17.13-15.8,25.14-19.95,3.08-1.6,6.37-3.04,9.85-4.32,6.13-2.15,12.12-3.11,17.86-2.93,5.73,.18,11.2,.6,16.39,1.21,13.57,1.61,20.29,3.11,20.84,3.28,6.4,1.76,10.33,4.85,11.95,8.99,5.34,13.29-10.77,34.92-33.35,70.39,8.52,.85,28.39,3.46,54.57,14,1.42-.05,3.53,.08,6.3,.44,1.62,.18,3.53,.6,5.71,1.29ZM102.49,81.84c-8.98,4.41-22.75,17.98-36.37,41.87,5.27,7.52,10.53,15.04,15.8,22.56,5.56-6.37,11-17.41,18.22-33.2,7.29-15.75,11.01-25.73,8.82-30.33-1.01-2.17-3.18-2.5-6.47-.9Z"/>
    <path class="cls-1" d="M320.04,58.94c-1.64-.33-3.8-1.16-6.53-2.45-2.74-1.29-5.07-1.95-6.97-2.01-10.9-.04-21.71,.45-32.38,1.45-2.03,31.49-4.07,62.99-6.1,94.48-.23,3.48,.56,7.31,2.21,11.52,.47,1.24,.13,3.5-.94,6.79-1.1,3.65-2.52,5.89-4.28,6.75-.27,.1-.93,.13-1.98,.07-4.35-.21-10.36-1.17-18.27-2.45-8.85-1.47-14.31-2.56-16.11-4.08-2.13-1.94-2.45-4.8-.72-8.61,1.5-3.3,2.24-5.65,2.1-7.09-2.81-29.57-5.63-59.13-8.44-88.7-6.99,1.75-13.9,3.72-20.71,5.91-.97,.28-2.51,1.04-4.59,2.33-2.09,1.28-3.91,1.97-5.51,2.03-4.62,.17-11.39-2.07-20.92-6.26-9.56-4.16-14.44-7.17-14.05-9.69,.86-3.11,5.14-6.59,13.01-10,2.02-.86,4.75-1.57,8.19-2.08,3.43-.5,6.09-1.04,7.95-1.65,35.93-12.45,74.51-19.26,114.17-19.6,1.13,.03,4.47-.29,10.06-.77,3.72-.27,7.04-.01,9.92,.75,6.2,1.62,10.16,3.83,11.91,6.42,1.24,1.74,2.29,4.75,3.12,9.01,1.08,5.06,1.15,9.28,.33,12.66-.63,2.57-1.67,4.38-3.11,5.46-1.45,1.08-5.22,.94-11.36-.19Z"/>
    <path class="cls-1" d="M506.03,135.14c-.93,.94-2.16,1.49-3.67,1.69-2.61,.3-4.49,.73-5.65,1.27-27.56,28.44-55.12,56.87-82.68,85.31,.25-.26-1.02,1.61-3.84,5.56-3.23,4.57-6.39,6.49-9.39,5.95-3.01-.54-7.39-4.09-13.67-10.16-3.63-3.42-7.45-7.8-11.71-13.08-5.67-6.66-8.52-11.06-7.94-13.68,.98-1.37,2.13-3.69,3.41-6.98,2.01-19.46,2.04-41.71-1.68-66.56-7.14,16.26-14.29,32.53-21.43,48.79-.39,.88-.42,2.24-.12,4.08,.36,2.4,.49,3.65,.44,3.76-.1,1.94-.53,3.72-1.29,5.35-2.04,4.36-5.25,5.47-9.72,3.57-4.38-1.84-10.1-5.42-17.7-10.36-7.1-4.75-11.29-7.63-12.04-9.19-1.16-2.26-.62-4.66,1.79-7.16,2.41-2.49,3.75-4.06,3.93-4.76,9.51-36.4,19.02-72.81,28.54-109.21,.18-.7,.14-1.82-.14-3.38-.28-1.56-.11-2.69,.53-3.39,3.15-3.4,8.12-4.97,14.86-4.49,1.15,.09,3.59,.68,7.28,1.85,8.46,2.69,16.87,6.33,25.09,10.93,10.66,5.85,17.4,11.36,20.5,15.79,4.08,5.98,6.55,19.6,5.48,40.17-1.44,25.23-3.43,42.25-3.31,51.95,13.38-19.42,26.76-38.84,40.14-58.26,.54-.79,.94-2.16,1.17-4.11,.23-1.95,.61-3.33,1.15-4.12,.4-.6,.96-1.01,1.68-1.25,2.09-1.03,6.61,.19,13.44,4.02,5.42,2.95,10.3,6.37,14.57,10.16,4.09,3.64,8.68,8.39,13.63,14.33,7,8.66,9.6,14.04,8.35,15.63Z"/>
  </g>
</svg>