<?xml version="1.0" encoding="UTF-8"?>
<svg id="Layer_2" data-name="Layer 2" xmlns="http://www.w3.org/2000/svg" viewBox="0 0 505.53 478.5">
  <defs>
    <style>
      .cls-1, .cls-2 {
        fill: #231f20;
      }

      .cls-2 {
        stroke: #231f20;
        stroke-miterlimit: 10;
      }
    </style>
  </defs>
  <g>
    <path class="cls-2" d="M189.58,186.66c-29.45,23.68,13.49,147.05,22.52,179.88,9.03,32.83-38.69,73.92-9.82,94.71,28.61,20.6,66.2,20.21,104.31,9.53,38.11-10.68,20.01-66.88-14.81-103.08-10.44-10.86,59.95-135.66,22.42-164.53-3.46,34.07-42.63,98.7-61.11,130.17-5.49-41.84-65.69-124.16-63.52-146.68Z"/>
    <path class="cls-2" d="M255.44,199.61s1.89,44.31-18.69,56.91c-31.58-11.25,18.69-56.91,18.69-56.91Z"/>
  </g>
  <g>
    <path class="cls-1" d="M192.8,155.48c1.84,1.66,.31,7.13-3.51,16.52-3.77,9.39-7.06,14.68-10.87,15.94-4.05,1.35-7.94,.73-11.89-1.91-.85-.94-2.48-2.15-4.94-3.56-18.39-4.86-38.47-7.37-59.73-6.84,6.39,9.08,12.77,18.16,19.16,27.24,.76,1.08,2.23,2.09,4.39,3.08,2.16,.99,3.49,1.9,4.03,2.69,2.02,3,.9,6.09-3.17,9.53-3.09,2.74-8.3,5.87-15.62,10.06-7.83,4.7-12.33,6.83-13.7,5.45-.42-.42-.87-1.13-1.32-2.11-.46-.98-1.23-2.03-2.33-3.14-29.44-29.79-58.87-59.58-88.31-89.37-.59-.6-1.37-.88-2.33-.86-.96,.03-1.58-.08-1.83-.34-2.12-2.43-.14-7.24,6.25-14,1.93-2.1,7.09-6.11,15.62-11.43,8.53-5.28,14.49-8.93,17.76-11.49,3.1-2.41,8.53-8.47,17.04-17.69,8.53-9.21,17.1-15.83,25.11-20,3.08-1.6,6.37-3.05,9.85-4.33,6.12-2.16,12.12-3.13,17.85-2.96,5.73,.17,11.2,.58,16.4,1.19,13.57,1.6,20.3,3.09,20.84,3.26,6.4,1.76,10.33,4.84,11.96,8.98,5.35,13.29-10.73,34.93-33.23,70.42,8.51,.84,28.38,3.43,54.54,13.95,1.42-.05,3.52,.08,6.29,.43,1.61,.18,3.52,.6,5.7,1.29ZM101.89,82.15c-8.97,4.43-22.72,18.01-36.3,41.93,5.28,7.51,10.57,15.02,15.85,22.53,5.54-6.38,10.96-17.43,18.15-33.23,7.26-15.76,10.97-25.75,8.77-30.34-1.01-2.17-3.18-2.5-6.47-.89Z"/>
    <path class="cls-1" d="M319.37,59.17c-1.64-.33-3.8-1.16-6.53-2.45-2.74-1.29-5.07-1.95-6.97-2.02-10.9-.05-21.7,.44-32.37,1.44-2.04,31.49-4.08,62.99-6.12,94.48-.23,3.48,.56,7.31,2.2,11.52,.47,1.24,.13,3.5-.94,6.79-1.1,3.65-2.52,5.89-4.28,6.75-.27,.1-.93,.13-1.98,.07-4.34-.21-10.33-1.17-18.23-2.46-8.84-1.47-14.27-2.56-16.08-4.08-2.13-1.94-2.44-4.8-.72-8.61,1.5-3.3,2.24-5.65,2.1-7.09-2.82-29.57-5.65-59.13-8.47-88.7-6.99,1.75-13.89,3.72-20.7,5.91-.97,.28-2.51,1.05-4.59,2.33-2.09,1.28-3.91,1.97-5.51,2.03-4.61,.17-11.39-2.06-20.92-6.24-9.56-4.15-14.45-7.16-14.05-9.67,.86-3.11,5.13-6.59,13-10.02,2.02-.86,4.75-1.58,8.19-2.09,3.43-.51,6.08-1.04,7.95-1.65,35.92-12.47,74.5-19.29,114.16-19.61,1.13,.03,4.47-.28,10.06-.76,3.72-.27,7.04,0,9.92,.76,6.2,1.62,10.16,3.84,11.9,6.43,1.24,1.74,2.29,4.75,3.11,9.01,1.08,5.06,1.14,9.28,.32,12.66-.63,2.57-1.67,4.38-3.11,5.45-1.45,1.08-5.22,.93-11.35-.2Z"/>
    <path class="cls-1" d="M505.23,135.7c-.93,.93-2.16,1.49-3.67,1.68-2.61,.29-4.49,.72-5.65,1.25-27.64,28.36-55.27,56.72-82.91,85.08,.25-.26-1.02,1.6-3.85,5.55-3.24,4.56-6.41,6.47-9.4,5.92-3.01-.54-7.37-4.1-13.62-10.18-3.61-3.43-7.41-7.8-11.65-13.08-5.64-6.66-8.47-11.06-7.89-13.68,.98-1.37,2.14-3.69,3.42-6.97,2.06-19.45,2.13-41.69-1.54-66.54-7.17,16.25-14.33,32.51-21.5,48.76-.39,.88-.42,2.24-.13,4.08,.36,2.4,.48,3.65,.44,3.76-.1,1.94-.54,3.72-1.3,5.35-2.04,4.35-5.25,5.46-9.71,3.57-4.36-1.84-10.07-5.43-17.65-10.36-7.08-4.75-11.26-7.63-12-9.2-1.16-2.26-.61-4.66,1.79-7.16,2.41-2.49,3.75-4.06,3.93-4.76,9.54-36.4,19.09-72.79,28.63-109.19,.18-.7,.14-1.82-.13-3.38-.28-1.56-.11-2.69,.54-3.39,3.16-3.4,8.13-4.97,14.86-4.48,1.15,.09,3.59,.69,7.28,1.86,8.46,2.7,16.87,6.35,25.08,10.96,10.65,5.87,17.39,11.38,20.48,15.82,4.07,5.99,6.53,19.61,5.42,40.18-1.48,25.22-3.52,42.24-3.42,51.93,13.42-19.39,26.84-38.79,40.26-58.18,.55-.79,.94-2.16,1.18-4.11,.23-1.95,.61-3.32,1.15-4.12,.41-.6,.96-1.01,1.69-1.25,2.09-1.02,6.61,.2,13.43,4.05,5.42,2.97,10.29,6.39,14.56,10.2,4.08,3.65,8.67,8.41,13.6,14.37,6.98,8.68,9.57,14.07,8.31,15.66Z"/>
  </g>
</svg>